<?xml version="1.0" encoding="utf-8"?>
<!-- Generator: Adobe Illustrator 19.0.0, SVG Export Plug-In . SVG Version: 6.00 Build 0)  -->
<svg version="1.1" id="Layer_1" xmlns="http://www.w3.org/2000/svg" xmlns:xlink="http://www.w3.org/1999/xlink" x="0px" y="0px"
	 viewBox="-582.9 -129.1 1280 800" style="enable-background:new -582.9 -129.1 1280 800;" xml:space="preserve">
<style type="text/css">
	.st0{fill:#FFFFFF;}
</style>
<g>
	<path id="XMLID_375_" class="st0" d="M332.1,32.8C200.7,32.8,94,139.4,94,270.9S200.7,509,332.1,509s238.1-106.7,238.1-238.1
		S463.8,32.8,332.1,32.8z M332.1,479.1c-114.9,0-208-93.1-208-208s93.1-208.2,208-208.2s208,93.1,208,208S447,479.1,332.1,479.1z"/>
	<g id="XMLID_346_">
		<path id="XMLID_351_" class="st0" d="M332.1,114.6c-86.2,0-156.3,69.9-156.3,156.3s69.9,156.3,156.3,156.3s156.3-69.9,156.3-156.3
			S418.5,114.6,332.1,114.6z M385.8,274.7c-7.5,9-19.1,15.1-34.2,15.1h-46v60.2h-25v-95.5h-16.2V234h16.2v-33.8h70.8
			c13.5,0,24.5,2.8,32.8,10.4c8.4,7.6,12.6,19,12.6,32.8C396.8,255.2,393.1,265.9,385.8,274.7z"/>
		<path id="XMLID_347_" class="st0" d="M361.5,224c-4-1.9-9.5-1.8-16.6-1.8h-39.4V234h27.9v20.6h-27.9v11.8h39.4
			c8.2,0,14.8-2.5,19.8-5.9c4.7-3.2,7.1-8.8,7.1-17.5C371.9,233.4,368.6,227.3,361.5,224z"/>
	</g>
</g>
</svg>
