<?xml version="1.0" encoding="utf-8"?>
<!-- Generator: Adobe Illustrator 19.0.0, SVG Export Plug-In . SVG Version: 6.00 Build 0)  -->
<svg version="1.1" id="Layer_1" xmlns="http://www.w3.org/2000/svg" xmlns:xlink="http://www.w3.org/1999/xlink" x="0px" y="0px"
	 viewBox="20 -300 1920 1200" style="enable-background:new 20 -300 1920 1200;" xml:space="preserve">
<style type="text/css">
	.st0{fill:#FFFFFF;}
</style>
<g>
	<path id="XMLID_375_" class="st0" d="M1435.2,27.6c-150.3,0-272.4,121.9-272.4,272.4s122.1,272.4,272.4,272.4
		s272.4-122.1,272.4-272.4S1585.9,27.6,1435.2,27.6z M1435.2,538.2c-131.4,0-237.9-106.5-237.9-237.9s106.5-238.2,237.9-238.2
		s237.9,106.5,237.9,237.9S1566.7,538.2,1435.2,538.2z"/>
	<g id="XMLID_346_">
		<path id="XMLID_351_" class="st0" d="M1435.2,121.2c-98.6,0-178.8,80-178.8,178.8s80,178.8,178.8,178.8S1614,398.8,1614,300
			S1534.1,121.2,1435.2,121.2z M1496.7,304.3c-8.6,10.3-21.8,17.3-39.1,17.3h-52.6v68.9h-28.6V281.2h-18.5v-23.5h18.5v-38.7h81
			c15.4,0,28,3.2,37.5,11.9c9.6,8.7,14.4,21.7,14.4,37.5C1509.3,282,1505,294.3,1496.7,304.3z"/>
		<path id="XMLID_347_" class="st0" d="M1468.9,246.3c-4.6-2.2-10.9-2.1-19-2.1h-45.1v13.5h31.9v23.6h-31.9v13.5h45.1
			c9.4,0,16.9-2.9,22.7-6.7c5.4-3.7,8.1-10.1,8.1-20C1480.8,257.1,1477,250.1,1468.9,246.3z"/>
	</g>
</g>
<rect x="267.6" y="-672.8" class="st0" width="1440" height="103.6"/>
</svg>
